# xmcd
#
# Track frame offsets:
#	150
#	10893
#	19956
#	32228
#	44298
#	56218
#	66263
#	78903
#	90088
#	101629
#	112387
#	122702
#	132132
#	142830
#	155500
#	167765
#	179085
#	192829
#
# Disc length: 2730 seconds
#
# Revision: 0
# Processed by: cddbd v1.5.2PL0 Copyright (c) Steve Scherf et al.
# Submitted via: EZCDAudioConverter 3.1.0.1
#
DISCID=f70aa812
DTITLE=VA_ - Stompin'
DYEAR=1900
DGENRE=Rhythm and Blues
TTITLE0=Lloyd Price - Such A Mess
TTITLE1=Little Walter - Crazy Mixed Up World
TTITLE2=Big Walter - Just Looking For A Home
TTITLE3=Lue Cazz - The Walk
TTITLE4=Roy Milton - Hop, Skip and Jump
TTITLE5=Papa Lightfoot - Wine, Women, Whiskey
TTITLE6=Arthur Gynter - Baby Let's Play House
TTITLE7=Big Jack Reynolds - I Had A Little Dog
TTITLE8=Jimmy Whitherspoon - Endless Sleep
TTITLE9=Louis (Blue Boy) Jones - Come On Home
TTITLE10=Bob Williams - My Goose Is Cooked
TTITLE11=Ted Taylor - Everywhere I Go
TTITLE12=Big Amos - Move With You Baby
TTITLE13=Dusty Brown - Well, You Know
TTITLE14=Billy Brooks - I'm Gone
TTITLE15=Otis Rush - Jump Sister Bessie
TTITLE16=Cile Turner - Crap Shootin' Sinner
TTITLE17=Bob Kelly - Malinda
EXTD=
EXTT0=
EXTT1=
EXTT2=
EXTT3=
EXTT4=
EXTT5=
EXTT6=
EXTT7=
EXTT8=
EXTT9=
EXTT10=
EXTT11=
EXTT12=
EXTT13=
EXTT14=
EXTT15=
EXTT16=
EXTT17=
PLAYORDER=
